<svg width="24.000000" height="24.000000" viewBox="0 0 24 24" fill="none" xmlns="http://www.w3.org/2000/svg" xmlns:xlink="http://www.w3.org/1999/xlink">
	<desc>
			Created with Pixso.
	</desc>
	<defs/>
	<g opacity="0.150000">
		<path id="Shape" d="M19 8L5 8L5 19C5 20.65 6.34 22 8 22L16 22C17.65 22 19 20.65 19 19L19 8Z" fill="#0F172A" fill-opacity="1.000000" fill-rule="nonzero"/>
	</g>
	<path id="Shape" d="M9 13C9 12.44 9.44 12 10 12C10.55 12 11 12.44 11 13L11 17C11 17.55 10.55 18 10 18C9.44 18 9 17.55 9 17L9 13ZM13 13C13 12.44 13.44 12 14 12C14.55 12 15 12.44 15 13L15 17C15 17.55 14.55 18 14 18C13.44 18 13 17.55 13 17L13 13Z" fill="#0F172A" fill-opacity="1.000000" fill-rule="evenodd"/>
	<path id="Shape" d="M8 6L8 5C8 3.34 9.34 2 11 2L13 2C14.65 2 16 3.34 16 5L16 6L19 6C19.55 6 20 6.44 20 7C20 7.55 19.55 8 19 8L5 8C4.44 8 4 7.55 4 7C4 6.44 4.44 6 5 6L8 6ZM10 5C10 4.44 10.44 4 11 4L13 4C13.55 4 14 4.44 14 5L14 6L10 6L10 5Z" fill="#0F172A" fill-opacity="1.000000" fill-rule="evenodd"/>
</svg>
